# xmcd
#
# Track frame offsets: 
#        150
#        14897
#        29880
#        48940
#        69950
#        93202
#        116222
#        132500
#        149695
#        172937
#        201677
#        225632
#
# Disc length: 3296 seconds
#
# Revision: 1
# Processed by: cddbd v1.5.2PL0 Copyright (c) Steve Scherf et al.
# Submitted via: ExactAudioCopy v0.95b4
#
DISCID=b90cde0c
DTITLE=Henry Butler - Blues After Sunset
DYEAR=1900
DGENRE=Blues
TTITLE0=I've Got My Eyes On You
TTITLE1=Baby, Let Me Hold Your Hand
TTITLE2=I Really Love You
TTITLE3=Butler's Boogie
TTITLE4=Relaxing Blues
TTITLE5=Blue Moments
TTITLE6=The Marriage Song
TTITLE7=Tee Na Na
TTITLE8=Bourbon Street Blues
TTITLE9=Death Has No Mercy
TTITLE10=Teatherball
TTITLE11=C. C. Rider
EXTD=
EXTT0=
EXTT1=
EXTT2=
EXTT3=
EXTT4=
EXTT5=
EXTT6=
EXTT7=
EXTT8=
EXTT9=
EXTT10=
EXTT11=
PLAYORDER=
